# xmcd
#
# Track frame offsets: 
#        150
#        43285
#        53671
#        68036
#        81511
#        98024
#        116934
#        135797
#        157662
#        172036
#        189486
#        227354
#        251390
#        293826
#        326700
#
# Disc length: 4633 seconds
#
# Revision: 0
# Processed by: cddbd v1.5.2PL0 Copyright (c) Steve Scherf et al.
# Submitted via: ExactAudioCopy v0.99pb4
#
DISCID=c612170f
DTITLE=Various Artist - Twenty Nine BEST OF BLUE NOTE [CD2)
DYEAR=2009
DGENRE=Blues
TTITLE0=Moanin' - Art Blakey
TTITLE1=Blue Moon (Live) - Billi Holiday
TTITLE2=Godchild - Miles Davis
TTITLE3=Satin Doll - Duke Ellington
TTITLE4=At Last - Lou Rawls with Dianne Reeves
TTITLE5=Arms Of A Woman - Amos Lee
TTITLE6=More Than This - Charlie Hunter feat. Norah Jones
TTITLE7=Don't Worry Be Happy - Bobby McFerrin
TTITLE8='Round Midnight - Thelonious Monk
TTITLE9=Someday My Prince Will Come - Cassandra Wilson
TTITLE10=Manhã de Carnaval - Dexter Gordon
TTITLE11=Garota de Ipanema - Eliane Elias
TTITLE12=Cool Struttin' - Sonny Clark
TTITLE13=Song For My Father - The Horace Silver Quintet
TTITLE14=Cantaloop (Flip Fantasia) - US3 feat. Rahsaan and Gerard Pres
TTITLE14=encer
EXTD=
EXTT0=
EXTT1=
EXTT2=
EXTT3=
EXTT4=
EXTT5=
EXTT6=
EXTT7=
EXTT8=
EXTT9=
EXTT10=
EXTT11=
EXTT12=
EXTT13=
EXTT14=
PLAYORDER=
